<svg width="125" height="137" viewBox="0 0 125 137" fill="none" xmlns="http://www.w3.org/2000/svg">
<g id="Group">
<path id="Vector" d="M124.073 44.0422C124.02 37.4485 121.276 31.8645 115.695 28.2364C109.923 24.4926 103.847 21.2326 97.5613 17.5625V19.9917C97.5613 47.2075 97.5508 74.4128 97.5928 101.629C97.5928 103.069 97.2249 103.437 95.7953 103.416C89.9926 103.332 84.1794 103.332 78.3662 103.416C76.9051 103.437 76.5582 102.996 76.5792 101.587C76.6528 94.9088 76.6318 88.2415 76.6002 81.5638C76.5792 78.3669 74.7396 76.2426 71.7647 76.2006C65.552 76.1164 59.3394 76.1059 53.1373 76.2006C50.1519 76.2426 48.2282 78.3458 48.2282 81.3219C48.2071 96.3915 48.1966 111.472 48.2492 126.541C48.2597 129.896 49.826 132.504 52.8325 134.102C59.5812 137.699 66.2669 137.457 72.8579 133.661C86.5972 125.753 100.368 117.866 114.065 109.884C120.32 106.235 123.968 100.672 124.062 93.3945C124.262 76.9472 124.22 60.4894 124.083 44.0317L124.073 44.0422Z" fill="#7F73E3"/>
<path id="Vector_2" d="M53.9363 59.8789C59.5077 59.8894 65.0896 59.8789 70.661 59.8789C74.8238 59.8789 76.6108 58.0806 76.6108 53.8742C76.6108 45.1878 76.6108 36.5015 76.6108 27.8257C76.6108 22.2521 76.5898 16.668 76.6108 11.0945C76.6318 7.5821 75.2968 4.81634 72.2483 3.02859C68.0119 0.536264 63.4392 -0.0946978 58.6142 0.736078C55.0085 1.35653 52.0126 3.32304 48.9431 5.10027C36.255 12.4195 23.5564 19.7072 10.8999 27.079C4.24576 30.949 0.850356 36.7854 0.839844 44.5358C0.839844 60.6361 0.839844 76.7363 0.839844 92.847C0.839844 100.345 4.22473 105.961 10.553 109.789C15.5147 112.786 20.592 115.604 25.6168 118.496C27.2356 119.421 27.2462 119.411 27.2462 117.486C27.2462 103.857 27.2462 90.2285 27.2462 76.5996C27.2462 62.9076 27.2672 49.226 27.2146 35.534C27.2146 34.1564 27.5195 33.6411 29.0122 33.6621C34.8148 33.7463 40.628 33.7357 46.4307 33.6621C47.7762 33.6411 48.1862 33.9881 48.1652 35.3763C48.0916 41.6439 48.1126 47.9115 48.1441 54.1791C48.1651 57.9965 50.0678 59.8684 53.9047 59.8789H53.9363Z" fill="#7F73E3"/>
</g>
</svg>
