<svg width="122" height="134" viewBox="0 0 122 134" fill="none" xmlns="http://www.w3.org/2000/svg">
<g id="Group">
<path id="Vector" d="M121.033 42.8552C120.981 36.3818 118.286 30.8996 112.804 27.3376C107.136 23.6622 101.169 20.4616 94.9947 16.8584V19.2433C94.9947 45.9628 94.9843 72.672 95.0256 99.3915C95.0256 100.806 94.6643 101.167 93.2602 101.147C87.5611 101.064 81.8517 101.064 76.1423 101.147C74.7072 101.167 74.3665 100.734 74.3872 99.3502C74.4595 92.7943 74.4388 86.2486 74.4078 79.6926C74.3872 76.554 72.5804 74.4685 69.6586 74.4272C63.5569 74.3446 57.4552 74.3343 51.3638 74.4272C48.4317 74.4685 46.5423 76.5334 46.5423 79.4552C46.5217 94.25 46.5113 109.055 46.563 123.85C46.5733 127.144 48.1116 129.704 51.0644 131.273C57.6927 134.804 64.259 134.567 70.7323 130.84C84.2263 123.076 97.7513 115.332 111.204 107.496C117.347 103.914 120.93 98.452 121.022 91.3076C121.219 75.1602 121.177 59.0026 121.043 42.8449L121.033 42.8552Z" fill="#7166D2"/>
<path id="Vector_2" d="M52.1485 58.4035C57.6204 58.4138 63.1027 58.4035 68.5746 58.4035C72.663 58.4035 74.4182 56.638 74.4182 52.5083C74.4182 43.9803 74.4182 35.4524 74.4182 26.9348C74.4182 21.4629 74.3975 15.9806 74.4182 10.5087C74.4388 7.06034 73.1276 4.34501 70.1335 2.58986C65.9728 0.142983 61.4817 -0.476473 56.7428 0.339153C53.2016 0.948292 50.2591 2.87895 47.2444 4.62377C34.7829 11.8095 22.311 18.9644 9.88044 26.2018C3.34511 30.0011 0.0103244 35.7311 0 43.3402C0 59.1468 0 74.9535 0 90.7704C0 98.1317 3.32446 103.645 9.53974 107.403C14.4128 110.345 19.3995 113.112 24.3346 115.952C25.9245 116.86 25.9349 116.85 25.9349 114.961C25.9349 101.58 25.9349 88.1997 25.9349 74.8193C25.9349 61.3769 25.9555 47.9449 25.9039 34.5025C25.9039 33.15 26.2033 32.6441 27.6694 32.6648C33.3684 32.7474 39.0778 32.7371 44.7769 32.6648C46.0984 32.6441 46.501 32.9849 46.4804 34.3477C46.4081 40.501 46.4288 46.6544 46.4597 52.8077C46.4804 56.5554 48.3491 58.3932 52.1175 58.4035H52.1485Z" fill="#7166D2"/>
</g>
</svg>
