<svg width="250" height="99" viewBox="0 0 250 99" fill="none" xmlns="http://www.w3.org/2000/svg">
<g id="Group 123">
<g id="Group">
<path id="Vector" d="M89.2627 31.6045C89.2247 26.8303 87.2373 22.7871 83.1941 20.1602C79.0139 17.4495 74.6128 15.089 70.0594 12.4316V14.1905C70.0594 33.8964 70.0518 53.5947 70.0823 73.3005C70.0823 74.3437 69.8158 74.6102 68.7802 74.595C64.5771 74.5341 60.3664 74.5341 56.1557 74.595C55.0973 74.6102 54.846 74.2904 54.8612 73.2701C54.9145 68.435 54.8993 63.6075 54.8765 58.7724C54.8612 56.4577 53.5287 54.9196 51.3739 54.8891C46.8738 54.8282 42.3737 54.8206 37.8813 54.8891C35.7188 54.9196 34.3254 56.4424 34.3254 58.5973C34.3102 69.5086 34.3026 80.4275 34.3406 91.3389C34.3482 93.7678 35.4828 95.6562 37.6605 96.8136C42.5489 99.4177 47.3916 99.2425 52.1658 96.4938C62.1177 90.7678 72.0924 85.057 82.0139 79.2778C86.5444 76.6356 89.1866 72.6076 89.2551 67.3385C89.3998 55.4297 89.3693 43.5133 89.2704 31.5969L89.2627 31.6045Z" fill="white"/>
<path id="Vector_2" d="M38.4599 43.0731C42.4955 43.0807 46.5387 43.0731 50.5743 43.0731C53.5896 43.0731 54.884 41.771 54.884 38.7253C54.884 32.4359 54.884 26.1464 54.884 19.8646C54.884 15.829 54.8688 11.7858 54.884 7.75024C54.8993 5.20706 53.9322 3.20448 51.7241 1.91005C48.6555 0.105451 45.3433 -0.351403 41.8483 0.250129C39.2366 0.699374 37.0665 2.12325 34.8431 3.41007C25.6527 8.70964 16.4546 13.9864 7.28691 19.324C2.46705 22.1261 0.00761432 26.352 0 31.9638C0 43.6213 0 55.2788 0 66.944C0 72.373 2.45182 76.439 7.03564 79.2107C10.6296 81.3807 14.3073 83.4214 17.947 85.5153C19.1196 86.1854 19.1272 86.1778 19.1272 84.7843C19.1272 74.9162 19.1272 65.048 19.1272 55.1799C19.1272 45.266 19.1424 35.3598 19.1043 25.4459C19.1043 24.4484 19.3251 24.0753 20.4064 24.0906C24.6095 24.1515 28.8202 24.1439 33.0233 24.0906C33.998 24.0753 34.2949 24.3266 34.2797 25.3317C34.2264 29.8698 34.2416 34.408 34.2644 38.9461C34.2797 41.7101 35.6579 43.0655 38.4371 43.0731H38.4599Z" fill="white"/>
</g>
<g id="Group_2">
<path id="Vector_3" d="M117.679 56.9077H99.5115C100.083 61.2631 103.319 63.3951 107.392 63.3951C110.415 63.3951 112.821 62.352 115.144 60.6083L117.512 63.6997C115.364 65.9612 111.336 67.5754 107.179 67.5754C99.9531 67.5754 94.5698 62.8697 94.5698 55.6894C94.5698 49.0269 99.2145 43.7578 106.57 43.7578C113.271 43.7578 118.433 48.0675 117.694 56.9077H117.679ZM106.425 47.8086C102.793 47.8086 100.379 49.9863 99.6409 53.2909H112.692C112.738 49.7198 109.715 47.8086 106.433 47.8086H106.425Z" fill="white"/>
<path id="Vector_4" d="M127.791 67.0571H122.933V35.1455H127.791V67.0571Z" fill="white"/>
<path id="Vector_5" d="M158.576 55.4755C158.576 62.9223 153.056 67.5822 146.401 67.5822C142.593 67.5822 140.096 66.0594 138.649 63.5314V74.8083H133.746V44.29H138.124L138.604 48.2495C140.096 45.5464 142.677 43.7646 146.835 43.7646C153.665 43.7646 158.568 48.4703 158.568 55.4755H158.576ZM153.535 55.5136C153.535 50.6404 150.078 47.983 145.913 47.983C141.748 47.983 138.642 50.9907 138.642 55.8181C138.642 60.6456 141.619 63.3487 145.822 63.3487C150.375 63.3487 153.528 60.2116 153.528 55.5136H153.535Z" fill="white"/>
<path id="Vector_6" d="M191.104 36.5771V67.0573H186.026V54.0368H169.038V67.0573H163.959V36.5771H169.038V49.5519H186.026V36.5771H191.104Z" fill="white"/>
<path id="Vector_7" d="M219.079 44.283V67.0498H214.96L214.259 63.433C212.813 65.9991 210.361 67.5676 206.637 67.5676C200.858 67.5676 197.31 63.7376 197.31 58.9025V44.2754H202.213V58.0802C202.213 60.9964 203.531 63.4787 207.688 63.4787C212.287 63.4787 214.214 60.7375 214.214 55.1182V44.2754H219.072L219.079 44.283Z" fill="white"/>
<path id="Vector_8" d="M249.514 55.5146C249.514 62.9157 244.168 67.5757 237.651 67.5757C233.843 67.5757 231.255 65.8777 229.77 63.0908L229.29 67.0503H225.087V35.1387H229.945V48.1135C231.437 45.4104 234.019 43.7581 237.955 43.7581C244.61 43.7581 249.514 48.4637 249.514 55.5146ZM244.519 55.5603C244.519 50.6414 241.237 47.984 237.163 47.984C233.09 47.984 229.937 50.9917 229.937 55.8649C229.937 60.738 233.006 63.3497 237.034 63.3497C241.503 63.3497 244.519 60.2126 244.519 55.5527V55.5603Z" fill="white"/>
</g>
</g>
</svg>
